JK_SCALED_running1_kinematics.mot
version=1
nRows=10
nColumns=34
inDegrees=yes
endheader
time	pelvis_rotation	pelvis_obliquity	pelvis_tilt	pelvis_tx	pelvis_ty	pelvis_tz	hip_flexion_r	hip_adduction_r	hip_rotation_r	knee_angle_r	ankle_angle_r	subtalar_angle_r	mtp_angle_r	hip_flexion_l	hip_adduction_l	hip_rotation_l	knee_angle_l	ankle_angle_l	subtalar_angle_l	mtp_angle_l	lumbar_extension	lumbar_bending	lumbar_rotation	arm_flex_r	arm_add_r	arm_rot_r	elbow_flex_r	pro_sup_r	arm_flex_l	arm_add_l	arm_rot_l	elbow_flex_l	pro_sup_l
      0.00000000	     -1.16229000	     -8.06703000	      0.01231000	      0.00000000	      1.02294000	      0.00000000	     26.20969000	     11.14067000	     -3.90815000	    -18.48548000	     11.77819000	      4.37745000	     16.73724000	    -10.03045000	     -6.93870000	      0.31673000	    -71.11373000	    -15.43363000	    -11.19306000	      4.24401000	    -16.65571000	     12.20889000	    -10.64892000	    -21.98631000	    -17.06765000	     -0.61748000	     93.67803000	    108.64673000	    -21.02926000	    -16.62031000	      1.48544000	     86.86272000	    120.56868000
      0.01519000	     -3.06222000	     -9.35441000	      0.82315000	      0.05863000	      1.00936000	      0.00044000	     26.51547000	     13.08618000	     -2.96508000	    -25.63841000	      8.80228000	      3.81251000	     18.52347000	     -6.88713000	     -8.81581000	     -1.16555000	    -79.31473000	    -13.66299000	    -11.97926000	      3.65266000	    -17.76606000	     13.67791000	     -7.53220000	    -19.57642000	    -17.29213000	      0.38537000	     93.10610000	    108.19082000	    -20.62904000	    -15.68394000	      1.53375000	     84.08120000	    120.23483000
      0.03038000	     -4.85900000	    -10.67952000	      1.81164000	      0.11620000	      0.99843000	      0.00089000	     26.40836000	     15.12855000	     -2.07388000	    -32.68103000	      8.97147000	      3.05865000	     18.85319000	     -3.39922000	    -10.97263000	     -2.02788000	    -86.82322000	    -11.85046000	    -12.69822000	      3.33708000	    -19.18278000	     15.08009000	     -4.36170000	    -16.91219000	    -17.46316000	      1.37668000	     92.75364000	    107.76845000	    -20.25224000	    -14.71938000	      1.41881000	     81.55833000	    119.78063000
      0.04556000	     -6.48349000	    -12.02912000	      2.61485000	      0.17285000	      0.99097000	      0.00144000	     25.32327000	     17.28694000	     -0.80394000	    -38.23726000	     13.55608000	      3.30718000	     17.99307000	      0.89953000	    -13.33448000	     -2.14162000	    -93.31089000	    -10.11154000	    -13.28481000	      3.20827000	    -20.51527000	     16.38676000	     -1.15092000	    -14.16525000	    -17.60063000	      2.26855000	     92.65548000	    107.45981000	    -19.94353000	    -13.75753000	      1.20971000	     79.46741000	    119.30297000
      0.06075000	     -7.79916000	    -12.83484000	      2.87521000	      0.22911000	      0.98719000	      0.00192000	     23.12064000	     18.61196000	      0.59870000	    -41.14618000	     17.62791000	      4.13088000	     17.41652000	      6.26184000	    -15.01350000	     -1.56887000	    -98.40300000	     -8.54922000	    -13.63960000	      3.15199000	    -21.23883000	     17.02406000	      1.76335000	    -11.59156000	    -17.65084000	      2.99512000	     92.87777000	    107.35134000	    -19.87593000	    -12.95797000	      0.97596000	     78.08934000	    118.90703000
      0.07594000	     -8.68805000	    -12.97381000	      2.52583000	      0.28559000	      0.98692000	      0.00224000	     20.12405000	     18.84548000	      2.11028000	    -41.83081000	     20.84466000	      5.29712000	     17.00085000	     12.47218000	    -15.70002000	     -0.55252000	   -101.87189000	     -7.24944000	    -13.77028000	      3.08931000	    -21.19021000	     16.90054000	      4.18837000	     -9.41202000	    -17.62290000	      3.49595000	     93.52639000	    107.51239000	    -20.18622000	    -12.44330000	      0.78731000	     77.62264000	    118.64611000
      0.09113000	     -9.10840000	    -12.44905000	      1.69492000	      0.34297000	      0.98981000	      0.00233000	     16.43907000	     18.01133000	      3.70052000	    -40.57586000	     23.06303000	      6.38662000	     16.66294000	     19.02732000	    -15.34963000	      0.52254000	   -103.61703000	     -6.22000000	    -13.78803000	      2.96204000	    -20.45045000	     16.05120000	      6.03787000	     -7.78575000	    -17.53787000	      3.74542000	     94.65649000	    107.93520000	    -20.94782000	    -12.27992000	      0.67451000	     78.08124000	    118.49268000
      0.10632000	     -9.19548000	    -11.30058000	      0.53836000	      0.40173000	      0.99539000	      0.00222000	     12.13493000	     16.21016000	      5.26960000	    -37.56487000	     23.99231000	      7.12339000	     16.30577000	     25.40500000	    -14.08224000	      1.18999000	   -103.64025000	     -5.38590000	    -13.81246000	      2.71954000	    -19.16260000	     14.51659000	      7.44708000	     -6.81462000	    -17.42155000	      3.75542000	     96.20090000	    108.51052000	    -22.14467000	    -12.46236000	      0.62175000	     79.31034000	    118.35949000
      0.12151000	     -9.02582000	     -9.44220000	     -0.68916000	      0.46189000	      1.00337000	      0.00171000	      7.46802000	     13.47087000	      6.61517000	    -33.50740000	     23.25101000	      7.15925000	     16.21097000	     31.09169000	    -11.83404000	      1.20620000	   -101.98729000	     -4.62559000	    -13.85623000	      2.32618000	    -17.64928000	     12.21014000	      8.45713000	     -6.41496000	    -17.27434000	      3.60188000	     97.97754000	    109.12588000	    -23.61925000	    -12.94588000	      0.55821000	     81.02709000	    118.18154000
      0.13669000	     -8.66941000	     -6.84320000	     -1.79936000	      0.52323000	      1.01351000	      0.00071000	      2.84757000	      9.78760000	      7.07718000	    -29.37729000	     20.57292000	      7.06760000	     19.06125000	     35.78368000	     -8.66301000	      0.54262000	    -98.70405000	     -3.87535000	    -13.90595000	      1.79892000	    -16.19387000	      9.09192000	      9.09096000	     -6.44898000	    -17.08776000	      3.38597000	     99.79111000	    109.75097000	    -25.22942000	    -13.65993000	      0.39106000	     82.99070000	    117.95134000
